<svg width="115" height="96" viewBox="0 0 115 96" fill="none" xmlns="http://www.w3.org/2000/svg">
<path fill-rule="evenodd" clip-rule="evenodd" d="M108.414 6.09206L108.414 89.2081C108.414 92.5071 105.735 95.1851 102.436 95.1851L74.5431 95.1851C71.2441 95.1851 68.5661 92.5071 68.5661 89.2081L68.5661 6.09205C68.5661 2.79305 71.2441 0.115056 74.5431 0.115056L102.436 0.115058C105.735 0.115059 108.414 2.79306 108.414 6.09206Z" fill="black"></path>
<path fill-rule="evenodd" clip-rule="evenodd" d="M46.5371 5.97707L46.5371 89.0921C46.5371 92.3911 43.8581 95.0701 40.5591 95.0701L12.6661 95.0701C9.36711 95.0701 6.68911 92.3911 6.68911 89.0921L6.68912 5.97706C6.68912 2.67806 9.36712 6.5415e-05 12.6661 6.57035e-05L40.5591 6.81419e-05C43.8581 6.84303e-05 46.5371 2.67807 46.5371 5.97707Z" fill="black"></path>
<path fill-rule="evenodd" clip-rule="evenodd" d="M90.2785 58.869L26.9995 58.869C25.1415 58.869 23.6335 57.361 23.6335 55.504L23.6335 39.796C23.6335 37.939 25.1415 36.431 26.9995 36.431L90.2785 36.431C92.1355 36.431 93.6445 37.939 93.6445 39.796L93.6445 55.504C93.6445 57.361 92.1355 58.869 90.2785 58.869Z" fill="black"></path>
<path fill-rule="evenodd" clip-rule="evenodd" d="M46.2337 26.456C57.8047 28.239 61.5557 28.406 82.9487 25.502C89.9287 24.554 90.3787 27.588 90.4737 28.222C91.0317 31.948 88.8867 30.698 84.4747 32.622C84.9477 32.578 89.9357 32.117 90.1997 34.193C90.5267 36.773 85.8037 39.64 85.2857 39.954C91.9337 40.121 89.4257 45.341 83.1707 46.998C79.4057 47.995 75.9117 48.856 72.6447 49.161C57.3977 50.584 48.7347 48.727 45.4987 48.324" fill="black"></path>
<path d="M46.2337 26.456C57.8047 28.239 61.5557 28.406 82.9487 25.502C89.9287 24.554 90.3787 27.588 90.4737 28.222C91.0317 31.948 88.8867 30.698 84.4747 32.622C84.9477 32.578 89.9357 32.117 90.1997 34.193C90.5267 36.773 85.8037 39.64 85.2857 39.954C91.9337 40.121 89.4257 45.341 83.1707 46.998C79.4057 47.995 75.9117 48.856 72.6447 49.161C57.3977 50.584 48.7347 48.727 45.4987 48.324" stroke="white" stroke-width="2.63863"></path>
<path fill-rule="evenodd" clip-rule="evenodd" d="M69.873 49.411C57.738 49.733 51.988 49.701 31.625 45.887C24.701 44.591 24.1951 47.974 24.1 48.608C23.543 52.333 25.6871 51.084 30.0991 53.008C29.6261 52.964 24.638 52.503 24.375 54.578C24.047 57.159 28.771 60.026 29.288 60.34C22.641 60.507 25.06 66.108 31.404 67.383C52.266 71.577 66.011 70.066 68.922 69.372" fill="black"></path>
<path d="M69.873 49.411C57.738 49.733 51.988 49.701 31.625 45.887C24.701 44.591 24.1951 47.974 24.1 48.608C23.543 52.333 25.6871 51.084 30.0991 53.008C29.6261 52.964 24.638 52.503 24.375 54.578C24.047 57.159 28.771 60.026 29.288 60.34C22.641 60.507 25.06 66.108 31.404 67.383C52.266 71.577 66.011 70.066 68.922 69.372" stroke="white" stroke-width="2.63863"></path>
<path fill-rule="evenodd" clip-rule="evenodd" d="M77.2266 63.2371L68.5664 63.2371L68.5664 76.6434L77.2266 76.6434L77.2266 63.2371Z" fill="black"></path>
<path fill-rule="evenodd" clip-rule="evenodd" d="M46.5244 21.921L37.8642 21.921L37.8642 35.3273L46.5244 35.3273L46.5244 21.921Z" fill="black"></path>
<path fill-rule="evenodd" clip-rule="evenodd" d="M111.879 27.745C110.446 23.606 101.06 24.096 98.9183 26.378C98.5333 26.788 95.5223 30.241 104.267 30.931C89.5363 34.909 103.96 37.725 104.502 37.819C92.7093 42.482 104.226 45.304 107.228 44.286C115.437 41.501 113.359 32.023 111.879 27.745Z" fill="black"></path>
<path d="M111.879 27.745C110.446 23.606 101.06 24.096 98.9183 26.378C98.5333 26.788 95.5223 30.241 104.267 30.931C89.5363 34.909 103.96 37.725 104.502 37.819C92.7093 42.482 104.226 45.304 107.228 44.286C115.437 41.501 113.359 32.023 111.879 27.745Z" stroke="white" stroke-width="2.63863"></path>
<path fill-rule="evenodd" clip-rule="evenodd" d="M2.69518 48.1311C4.12818 43.9921 13.5132 44.4821 15.6552 46.7641C16.0402 47.1741 19.0522 50.6271 10.3072 51.3171C25.0382 55.2951 10.6142 58.1111 10.0712 58.2051C21.8642 62.8681 10.3472 65.6901 7.34518 64.6721C-0.863824 61.8871 1.21418 52.4091 2.69518 48.1311Z" fill="black"></path>
<path d="M2.69518 48.1311C4.12818 43.9921 13.5132 44.4821 15.6552 46.7641C16.0402 47.1741 19.0522 50.6271 10.3072 51.3171C25.0382 55.2951 10.6142 58.1111 10.0712 58.2051C21.8642 62.8681 10.3472 65.6901 7.34518 64.6721C-0.863824 61.8871 1.21418 52.4091 2.69518 48.1311Z" stroke="white" stroke-width="2.63863"></path>
</svg>