<svg width="426" height="213" viewBox="0 0 426 213" fill="#FFFFFF" xmlns="http://www.w3.org/2000/svg">
<path d="M281.435 104.118C284.733 104.118 287.411 106.796 287.411 110.095V206.048C287.411 209.347 284.733 212.025 281.435 212.025H253.541C250.242 212.025 247.563 209.347 247.563 206.048V110.095C247.564 106.796 250.242 104.118 253.541 104.118H281.435ZM419.961 104.094C422.85 104.094 425.195 106.44 425.195 109.33V133.763C425.195 136.653 422.85 138.999 419.961 138.999H378.392V164.31C375.488 164.773 372.819 165.893 370.771 167.517C367.264 170.295 365.945 174.981 366.436 179.868C366.929 184.779 369.25 190.096 373.307 194.469C374.605 195.868 376.395 197.55 378.392 199.32V206.795C378.392 209.681 376.047 212.025 373.161 212.025H348.754C345.868 212.025 343.524 209.681 343.524 206.795V138.999H301.954C299.065 138.999 296.719 136.653 296.719 133.763V109.33C296.719 106.44 299.065 104.094 301.954 104.094H419.961ZM231.969 104.094C234.858 104.094 237.205 106.44 237.205 109.33V133.763C237.205 136.653 234.858 138.999 231.969 138.999H164.282V146.828H196.061C197.917 146.828 199.427 148.336 199.427 150.194V165.901C199.427 167.759 197.917 169.267 196.061 169.268H164.282V176.988H231.969C234.858 176.988 237.205 179.334 237.205 182.223V206.657C237.205 209.546 234.858 211.891 231.969 211.892H160.118C159.774 211.963 159.417 212.001 159.052 212.001H134.646C131.759 212.001 129.416 209.658 129.416 206.771V109.324C129.416 106.438 131.759 104.094 134.646 104.094H231.969ZM113.93 104.094C116.82 104.094 119.166 106.44 119.166 109.33V133.763C119.166 133.795 119.164 133.827 119.163 133.859C119.454 135.707 118.745 137.653 117.151 138.859L66.7432 176.988H113.93C116.819 176.988 119.166 179.334 119.166 182.223V206.657C119.166 209.546 116.82 211.891 113.93 211.892H10.4912C7.60179 211.891 5.25596 209.546 5.25586 206.657V182.223C5.25601 180.147 6.4675 178.351 8.22168 177.505L59.1289 138.999H10.4912C7.60173 138.999 5.25586 136.653 5.25586 133.763V109.33C5.25586 106.44 7.60173 104.094 10.4912 104.094H113.93ZM372.674 169.382C378.303 165.195 389.269 165.323 394.79 174.071L395.906 175.839L397.021 174.071C402.63 165.184 413.859 165.193 419.402 169.585H419.403C422.022 171.66 423.483 175.398 423.283 179.703C423.084 183.982 421.239 188.678 417.443 192.464C414.414 195.485 408.854 200.066 404.002 203.926C401.586 205.848 399.362 207.578 397.742 208.828C396.986 209.411 396.361 209.889 395.91 210.233C395.473 209.896 394.871 209.431 394.146 208.864C392.572 207.634 390.413 205.928 388.076 204.031C383.377 200.217 378.041 195.692 375.241 192.675C371.554 188.7 369.493 183.914 369.061 179.605C368.626 175.274 369.838 171.622 372.409 169.585L372.674 169.382ZM267.526 0.229492C287.9 0.229642 305.299 13.0869 312.058 31.1328C312.705 32.8727 312.458 34.8188 311.399 36.3438C310.339 37.8677 308.601 38.7773 306.744 38.7773C297.256 38.7783 282.079 38.7783 281.979 38.7783C279.027 34.0194 273.758 30.8458 267.755 30.8457C258.523 30.8459 251.028 38.35 251.028 47.5918C251.028 56.8347 258.523 64.3377 267.755 64.3379C273.709 64.3378 278.941 61.2172 281.905 56.5225H306.871C308.719 56.5225 310.453 57.4227 311.514 58.9355C312.575 60.4485 312.831 62.3851 312.201 64.123C305.547 82.3709 288.046 95.4139 267.526 95.4141C241.288 95.4141 219.986 74.0891 219.986 47.8223C219.986 21.5553 241.288 0.229492 267.526 0.229492ZM164.294 0.115234C190.532 0.115423 211.834 21.4411 211.834 47.708C211.834 73.9749 190.532 95.2996 164.294 95.2998C138.056 95.2998 116.754 73.975 116.754 47.708C116.754 21.441 138.056 0.115234 164.294 0.115234ZM101.117 0.115234C104.416 0.115466 107.094 2.79303 107.094 6.0918V23.6973C106.219 23.4851 105.299 23.3704 104.396 23.335C102.883 23.2756 101.337 23.432 100.004 23.7666C98.8032 24.0682 97.5953 24.5586 96.792 25.3184L96.6367 25.4746C96.5028 25.6173 96.1471 26.0144 95.8662 26.5654C95.5912 27.1052 95.3042 27.9632 95.583 28.9189C95.8729 29.9112 96.6684 30.6627 97.8223 31.1865C97.8707 31.2085 97.9215 31.2296 97.9717 31.251C96.9859 31.7131 96.2033 32.2188 95.6934 32.8105C95.0923 33.5082 94.8312 34.3938 95.1699 35.2969C95.4532 36.0514 96.0769 36.5781 96.6094 36.9307C97.3913 37.4481 98.4097 37.8633 99.3682 38.1846C99.2674 38.2457 99.1696 38.3072 99.0752 38.3682C98.186 38.9421 97.4883 39.5665 97.0742 40.2705C96.6274 41.0304 96.5237 41.8753 96.8477 42.6768C97.1414 43.4029 97.7187 43.9233 98.2764 44.2871C99.3937 45.0158 100.96 45.4579 102.365 45.665C103.744 45.8683 105.28 45.8918 106.332 45.5352C106.595 45.4461 106.848 45.3489 107.094 45.2471V89.208C107.094 92.5069 104.416 95.1843 101.117 95.1846H73.2236C69.9248 95.1844 67.2471 92.5069 67.2471 89.208V70.792C67.5041 70.7444 67.7254 70.6991 67.9092 70.6553L67.2969 68.0889C64.6139 68.7281 51.0685 70.2559 30.3447 66.0898C28.9217 65.8039 27.7514 65.2808 26.8965 64.6855C26.0224 64.0768 25.5581 63.4509 25.3965 63.001C25.2607 62.6224 25.341 62.4472 25.5029 62.2959C25.7676 62.049 26.4753 61.6976 28.002 61.6592L32.5039 61.5459L28.6533 59.2119C28.4068 59.0625 27.1837 58.3188 26.0752 57.3262C25.5194 56.8284 25.0401 56.31 24.7256 55.8154C24.4168 55.3297 24.3443 54.9886 24.3633 54.7705C24.388 54.7455 24.4457 54.699 24.5703 54.6387C24.8794 54.4892 25.3653 54.3737 25.9756 54.3105C27.1761 54.1864 28.4309 54.3001 28.6582 54.3213L29.3076 51.7988C28.1182 51.2801 27.084 50.9769 26.2354 50.7559C25.3252 50.5188 24.8075 50.4134 24.3926 50.2529C24.2146 50.184 24.1346 50.1311 24.1016 50.1045C24.0821 50.0887 24.0785 50.0829 24.0713 50.0664C24.0353 49.9843 23.9554 49.6756 24.0859 48.8037C24.122 48.5632 24.208 48.01 24.7812 47.5742C25.3628 47.1324 26.777 46.5684 30.0635 47.1836L33.7188 47.8584C37.7042 48.5822 41.0405 49.1401 43.9521 49.5723V49.5762C46.3649 49.8943 54.322 51.5548 67.2705 50.792C67.3856 50.789 67.5018 50.7873 67.6182 50.7842L67.6172 50.7695C68.8493 50.6933 70.1266 50.5969 71.4473 50.4736C74.8367 50.1571 78.4291 49.268 82.1875 48.2725C83.8909 47.8212 85.3703 47.1199 86.5234 46.293C87.654 45.4821 88.5675 44.4796 88.9814 43.3818C89.1932 42.8198 89.2868 42.1957 89.1621 41.5635C89.0348 40.9184 88.6971 40.3538 88.1992 39.9082C87.9124 39.6516 87.5775 39.4382 87.2012 39.2637C87.3401 39.1476 87.482 39.029 87.6201 38.9053C88.2682 38.3249 88.9408 37.6226 89.4355 36.8447C89.8926 36.1258 90.2735 35.2211 90.207 34.2266L90.1875 34.0264C90.0717 33.1142 89.5285 32.509 88.9424 32.123C89.4701 31.8483 89.9778 31.4322 90.2812 30.7402C90.628 29.9489 90.6071 29.0147 90.459 28.0254C90.3963 27.6074 90.1847 26.237 88.7451 25.1982C87.3524 24.1934 85.09 23.7002 81.4512 24.1943C75.5246 24.9988 70.9732 25.5639 67.2471 25.9248V6.0918C67.2472 2.793 69.9249 0.115426 73.2236 0.115234H101.117ZM357.014 0C360.311 0.000223262 362.99 2.6779 362.99 5.97656V36.4307H385.02V6.0918C385.02 2.793 387.698 0.115422 390.996 0.115234H418.891C422.188 0.115458 424.867 2.79302 424.867 6.0918V89.208C424.867 92.5069 422.188 95.1843 418.891 95.1846H390.996C387.698 95.1844 385.02 92.5069 385.02 89.208V58.8691H362.99V89.0918C362.99 92.3907 360.311 95.0701 357.014 95.0703H329.119C325.821 95.0701 323.143 92.3907 323.143 89.0918V5.97656C323.143 2.67788 325.821 0.000187389 329.119 0H357.014ZM39.2402 0C42.5389 0.000232998 45.2166 2.67791 45.2168 5.97656V25.166C45.1831 25.1608 45.1491 25.1566 45.1152 25.1514L44.7129 27.7588C50.5145 28.6528 54.4373 29.1553 59.6133 29.0547C64.7573 28.9546 71.1145 28.26 81.8066 26.8086C85.1464 26.3551 86.6001 26.9044 87.2012 27.3379C87.7538 27.7367 87.8171 28.1999 87.8496 28.417C87.9799 29.2875 87.9004 29.5976 87.8643 29.6807C87.857 29.6971 87.853 29.7033 87.834 29.7188C87.8012 29.7452 87.7203 29.7972 87.542 29.8662C87.1271 30.0266 86.6101 30.1323 85.7002 30.3691C84.8516 30.59 83.8173 30.8935 82.6279 31.4121L83.2773 33.9346C83.5068 33.9132 84.7607 33.7996 85.96 33.9238C86.5703 33.9871 87.0563 34.1023 87.3652 34.252C87.4901 34.3125 87.5467 34.3598 87.5713 34.3848C87.5904 34.6023 87.5178 34.9429 87.209 35.4287C86.8945 35.9232 86.4152 36.4417 85.8594 36.9395C84.7518 37.9312 83.5303 38.6748 83.2822 38.8252L79.4316 41.1592L83.9326 41.2725C85.4791 41.3114 86.1861 41.6464 86.4404 41.874C86.5439 41.9667 86.5651 42.0332 86.5732 42.0742C86.5838 42.128 86.5893 42.2478 86.5127 42.4512C86.3487 42.8861 85.877 43.5106 84.9863 44.1494C84.1179 44.7722 82.9365 45.3444 81.5127 45.7217C77.7437 46.72 74.3463 47.5531 71.2021 47.8467C69.7997 47.9776 68.4483 48.0793 67.1494 48.1562C55.414 48.4628 50.6079 48.3469 30.5488 44.5898C26.9122 43.9092 24.6109 44.3897 23.1846 45.4736C21.7512 46.5631 21.5357 48.0176 21.4766 48.4121C21.3284 49.4014 21.3074 50.3346 21.6543 51.126C21.9577 51.8175 22.4638 52.235 22.9912 52.5098C22.4058 52.8955 21.8629 53.5001 21.7471 54.4111C21.6108 55.4847 22.0114 56.4634 22.499 57.2305C22.9939 58.0088 23.6671 58.7115 24.3154 59.292C24.4597 59.4212 24.606 59.5461 24.751 59.667C24.3539 59.8555 24.0015 60.0878 23.7021 60.3672C22.6467 61.3528 22.4822 62.6901 22.9131 63.8916C23.3187 65.0217 24.2334 66.046 25.3887 66.8506C26.564 67.669 28.0763 68.3253 29.8252 68.6768L31.7734 69.0557C36.6803 69.9797 41.1784 70.5882 45.2168 70.9717V89.0918C45.2168 92.3907 42.539 95.0701 39.2402 95.0703H11.3467C8.04799 95.0701 5.37012 92.3907 5.37012 89.0918V65.8379C5.44679 65.8656 5.52339 65.8954 5.60156 65.9219L5.80469 65.9844C6.84532 66.2749 8.27609 66.2422 9.56836 66.0518C10.9732 65.8446 12.5398 65.4024 13.6572 64.6738C14.2149 64.3101 14.792 63.7895 15.0859 63.0635C15.41 62.262 15.3071 61.4171 14.8604 60.6572C14.4463 59.9531 13.7486 59.3289 12.8594 58.7549C12.7649 58.6939 12.6663 58.6334 12.5654 58.5723C13.5241 58.251 14.5431 57.835 15.3252 57.3174C15.8576 56.9649 16.4813 56.438 16.7646 55.6836C17.1034 54.7805 16.8422 53.8948 16.2412 53.1973C15.7312 52.6054 14.948 52.0999 13.9619 51.6377C14.0122 51.6162 14.0628 51.5953 14.1113 51.5732C15.2656 51.0494 16.0617 50.2973 16.3516 49.3047C16.6302 48.349 16.3424 47.4919 16.0674 46.9521C15.7863 46.4008 15.4306 46.0038 15.2969 45.8613H15.2979C14.5004 45.0118 13.2109 44.475 11.9297 44.1533C10.5968 43.8187 9.05172 43.6623 7.53809 43.7217C6.81588 43.75 6.08273 43.8301 5.37012 43.9688V5.97656C5.37035 2.67791 8.04813 0.000243845 11.3467 0H39.2402ZM7.6416 46.3584C8.92062 46.3083 10.2134 46.4433 11.2871 46.7129C12.4125 46.9955 13.1005 47.3756 13.374 47.667C13.4329 47.7297 13.5983 47.9179 13.7168 48.1504C13.841 48.3942 13.8314 48.5215 13.8184 48.5664C13.8128 48.5859 13.7321 48.8484 13.0215 49.1709C12.2791 49.5077 10.9997 49.835 8.88379 50.002L8.64355 52.5908C10.4469 53.0778 11.7599 53.5358 12.6865 53.9541C13.5546 54.346 13.9923 54.6642 14.1904 54.8652C14.1258 54.9269 14.0254 55.0137 13.8691 55.1172C13.1361 55.6023 11.9138 56.0435 10.7295 56.3789C9.5812 56.7041 8.62332 56.8884 8.52637 56.9053L3.90234 57.7061L8.2666 59.4316C9.69237 59.9954 10.717 60.513 11.4277 60.9717C12.1536 61.4402 12.4682 61.794 12.5859 61.9941C12.6119 62.0384 12.6244 62.0703 12.6309 62.0889C12.6031 62.1375 12.5038 62.276 12.2158 62.4639C11.5529 62.896 10.4134 63.2601 9.18359 63.4414C8.08429 63.6034 7.15833 63.584 6.64355 63.4746L6.44922 63.4229C4.64492 62.8107 3.47494 61.8597 2.71094 60.7607C1.93629 59.6463 1.52508 58.2997 1.37988 56.832C1.08636 53.8623 1.90393 50.6372 2.62207 48.5625C2.82129 47.9876 3.33008 47.4641 4.24414 47.0537C5.15875 46.6433 6.35498 46.4089 7.6416 46.3584ZM104.293 25.9717C105.579 26.0222 106.775 26.2567 107.689 26.667C108.604 27.0773 109.112 27.601 109.312 28.1758C110.03 30.2504 110.848 33.4755 110.555 36.4453C110.41 37.9129 109.998 39.2596 109.224 40.374C108.46 41.473 107.289 42.4239 105.484 43.0361C105.035 43.1881 104.006 43.2398 102.75 43.0547C101.52 42.8733 100.381 42.5094 99.7178 42.0771C99.4279 41.888 99.3286 41.7498 99.3018 41.7021C99.3082 41.6835 99.3225 41.6518 99.3486 41.6074C99.4666 41.4072 99.7807 41.0531 100.506 40.585C101.217 40.1262 102.242 39.6087 103.668 39.0449L108.03 37.3203L103.408 36.5186C103.311 36.5016 102.353 36.3172 101.205 35.9922C100.021 35.6567 98.7985 35.2157 98.0654 34.7305C97.9086 34.6266 97.8078 34.5402 97.7432 34.4785C97.9412 34.2775 98.3797 33.9594 99.248 33.5674C100.175 33.1491 101.487 32.691 103.29 32.2041L103.05 29.6152C100.934 29.4482 99.6553 29.1209 98.9131 28.7842C98.1853 28.4539 98.1176 28.1867 98.1152 28.1787C98.1023 28.133 98.0942 28.0062 98.2178 27.7637C98.3363 27.5312 98.5019 27.3427 98.5605 27.2803L98.6826 27.167C99.0128 26.8952 99.6624 26.5733 100.646 26.3262C101.72 26.0566 103.014 25.9215 104.293 25.9717Z" fill="#FFFFFF"></path>
<path fill-rule="evenodd" clip-rule="evenodd" d="M67.2822 72.914H71.1178V63.4465H67.2822V72.914Z" fill="#FFFFFF"></path>
<path fill-rule="evenodd" clip-rule="evenodd" d="M41.3652 31.5351H45.2009V22.0676H41.3652V31.5351Z" fill="#FFFFFF"></path>
</svg>