<svg width="428" height="214" viewBox="0 0 428 214" fill="none" xmlns="http://www.w3.org/2000/svg">
<path fill-rule="evenodd" clip-rule="evenodd" d="M165.601 109.324V206.771C165.601 209.658 163.258 212.001 160.371 212.001H135.965C133.078 212.001 130.735 209.658 130.735 206.771V109.324C130.735 106.438 133.078 104.094 135.965 104.094H160.371C163.258 104.094 165.601 106.438 165.601 109.324Z" fill="#FBF3E7"></path>
<path fill-rule="evenodd" clip-rule="evenodd" d="M379.711 109.348V206.795C379.711 209.681 377.367 212.025 374.481 212.025H350.074C347.188 212.025 344.844 209.681 344.844 206.795V109.348C344.844 106.461 347.188 104.118 350.074 104.118H374.481C377.367 104.118 379.711 106.461 379.711 109.348Z" fill="#FBF3E7"></path>
<path fill-rule="evenodd" clip-rule="evenodd" d="M288.731 110.095V206.048C288.731 209.347 286.053 212.025 282.754 212.025H254.861C251.562 212.025 248.883 209.347 248.883 206.048V110.095C248.883 106.796 251.562 104.118 254.861 104.118H282.754C286.053 104.118 288.731 106.796 288.731 110.095Z" fill="#FBF3E7"></path>
<path fill-rule="evenodd" clip-rule="evenodd" d="M426.187 6.09199V89.208C426.187 92.507 423.508 95.185 420.21 95.185H392.316C389.018 95.185 386.339 92.507 386.339 89.208V6.09199C386.339 2.79299 389.018 0.11499 392.316 0.11499H420.21C423.508 0.11499 426.187 2.79299 426.187 6.09199Z" fill="#FBF3E7"></path>
<path fill-rule="evenodd" clip-rule="evenodd" d="M108.413 6.09199V89.208C108.413 92.507 105.735 95.185 102.436 95.185H74.5434C71.2444 95.185 68.5664 92.507 68.5664 89.208V6.09199C68.5664 2.79299 71.2444 0.11499 74.5434 0.11499H102.436C105.735 0.11499 108.413 2.79299 108.413 6.09199Z" fill="#FBF3E7"></path>
<path fill-rule="evenodd" clip-rule="evenodd" d="M364.31 5.977V89.092C364.31 92.391 361.631 95.07 358.333 95.07H330.439C327.141 95.07 324.462 92.391 324.462 89.092V5.977C324.462 2.678 327.141 0 330.439 0H358.333C361.631 0 364.31 2.678 364.31 5.977Z" fill="#FBF3E7"></path>
<path fill-rule="evenodd" clip-rule="evenodd" d="M46.5365 5.977V89.092C46.5365 92.391 43.8585 95.07 40.5595 95.07H12.6666C9.36765 95.07 6.68945 92.391 6.68945 89.092V5.977C6.68945 2.678 9.36765 0 12.6666 0H40.5595C43.8585 0 46.5365 2.678 46.5365 5.977Z" fill="#FBF3E7"></path>
<path fill-rule="evenodd" clip-rule="evenodd" d="M233.288 138.999H135.971C133.081 138.999 130.735 136.653 130.735 133.763V109.33C130.735 106.44 133.081 104.094 135.971 104.094H233.288C236.177 104.094 238.524 106.44 238.524 109.33V133.763C238.524 136.653 236.177 138.999 233.288 138.999Z" fill="#FBF3E7"></path>
<path fill-rule="evenodd" clip-rule="evenodd" d="M421.28 138.999H303.273C300.384 138.999 298.038 136.653 298.038 133.763V109.33C298.038 106.44 300.384 104.094 303.273 104.094H421.28C424.169 104.094 426.515 106.44 426.515 109.33V133.763C426.515 136.653 424.169 138.999 421.28 138.999Z" fill="#FBF3E7"></path>
<path fill-rule="evenodd" clip-rule="evenodd" d="M115.249 138.999H11.8109C8.9213 138.999 6.5752 136.653 6.5752 133.763V109.33C6.5752 106.44 8.9213 104.094 11.8109 104.094H115.249C118.139 104.094 120.485 106.44 120.485 109.33V133.763C120.485 136.653 118.139 138.999 115.249 138.999Z" fill="#FBF3E7"></path>
<path fill-rule="evenodd" clip-rule="evenodd" d="M118.471 138.859L29.9566 205.811C27.6526 207.553 24.3696 207.096 22.6296 204.791L7.91661 185.296C6.17651 182.991 6.63411 179.704 8.93781 177.962L97.4516 111.01C99.7546 109.267 103.039 109.724 104.779 112.03L119.492 131.524C121.232 133.83 120.774 137.116 118.471 138.859Z" fill="#FBF3E7"></path>
<path fill-rule="evenodd" clip-rule="evenodd" d="M197.38 169.267H134.101C132.243 169.267 130.735 167.759 130.735 165.901V150.194C130.735 148.336 132.243 146.828 134.101 146.828H197.38C199.237 146.828 200.746 148.336 200.746 150.194V165.901C200.746 167.759 199.237 169.267 197.38 169.267Z" fill="#FBF3E7"></path>
<path fill-rule="evenodd" clip-rule="evenodd" d="M408.05 58.8689H344.771C342.913 58.8689 341.405 57.3609 341.405 55.5039V39.7959C341.405 37.9389 342.913 36.4309 344.771 36.4309H408.05C409.908 36.4309 411.416 37.9389 411.416 39.7959V55.5039C411.416 57.3609 409.908 58.8689 408.05 58.8689Z" fill="#FBF3E7"></path>
<path fill-rule="evenodd" clip-rule="evenodd" d="M90.2788 58.8689H26.9998C25.1418 58.8689 23.6338 57.3609 23.6338 55.5039V39.7959C23.6338 37.9389 25.1418 36.4309 26.9998 36.4309H90.2788C92.1358 36.4309 93.6438 37.9389 93.6438 39.7959V55.5039C93.6438 57.3609 92.1358 58.8689 90.2788 58.8689Z" fill="#FBF3E7"></path>
<path fill-rule="evenodd" clip-rule="evenodd" d="M233.288 211.892H135.971C133.081 211.892 130.735 209.546 130.735 206.657V182.223C130.735 179.334 133.081 176.988 135.971 176.988H233.288C236.177 176.988 238.524 179.334 238.524 182.223V206.657C238.524 209.546 236.177 211.892 233.288 211.892Z" fill="#FBF3E7"></path>
<path fill-rule="evenodd" clip-rule="evenodd" d="M115.249 211.892H11.8109C8.9213 211.892 6.5752 209.546 6.5752 206.657V182.223C6.5752 179.334 8.9213 176.988 11.8109 176.988H115.249C118.139 176.988 120.485 179.334 120.485 182.223V206.657C120.485 209.546 118.139 211.892 115.249 211.892Z" fill="#FBF3E7"></path>
<path fill-rule="evenodd" clip-rule="evenodd" d="M165.613 0.11499C191.851 0.11499 213.153 21.441 213.153 47.708C213.153 73.975 191.851 95.3 165.613 95.3C139.375 95.3 118.073 73.975 118.073 47.708C118.073 21.441 139.375 0.11499 165.613 0.11499Z" fill="#FBF3E7"></path>
<path fill-rule="evenodd" clip-rule="evenodd" d="M308.191 56.522C310.039 56.522 311.772 57.423 312.833 58.936C313.894 60.449 314.151 62.385 313.521 64.123C306.867 82.371 289.366 95.414 268.846 95.414C242.608 95.414 221.306 74.089 221.306 47.822C221.306 21.555 242.608 0.229004 268.846 0.229004C289.22 0.229004 306.618 13.087 313.377 31.133C314.024 32.873 313.778 34.819 312.719 36.344C311.659 37.868 309.921 38.777 308.064 38.777C298.544 38.778 283.298 38.778 283.298 38.778C280.346 34.019 275.078 30.846 269.075 30.846C259.843 30.846 252.348 38.35 252.348 47.592C252.348 56.835 259.843 64.338 269.075 64.338C275.029 64.338 280.261 61.217 283.225 56.522H308.191Z" fill="#FBF3E7"></path>
<path fill-rule="evenodd" clip-rule="evenodd" d="M397.225 173.367C403.304 163.734 415.462 163.734 421.541 168.551C427.62 173.367 427.756 185.356 419.694 193.398C413.515 199.561 397.225 211.896 397.225 211.896C397.225 211.896 381.338 199.764 375.593 193.572C367.848 185.224 366.83 173.367 372.909 168.551C378.988 163.734 391.146 163.734 397.225 173.367Z" fill="#FBF3E7"></path>
<path d="M397.225 173.367C403.304 163.734 415.462 163.734 421.541 168.551C427.62 173.367 427.756 185.356 419.694 193.398C413.515 199.561 397.225 211.896 397.225 211.896C397.225 211.896 381.338 199.764 375.593 193.572C367.848 185.224 366.83 173.367 372.909 168.551C378.988 163.734 391.146 163.734 397.225 173.367Z" stroke="#EB3915" stroke-width="2.63863" stroke-linecap="round"></path>
<path fill-rule="evenodd" clip-rule="evenodd" d="M46.2334 26.456C57.8034 28.239 61.5554 28.406 82.9484 25.502C89.9284 24.554 90.3784 27.588 90.4734 28.222C91.0314 31.948 88.8864 30.698 84.4744 32.622C84.9474 32.578 89.9354 32.117 90.1984 34.193C90.5264 36.773 85.8034 39.64 85.2854 39.954C91.9334 40.121 89.4254 45.341 83.1694 46.998C79.4054 47.995 75.9114 48.856 72.6444 49.161C57.3974 50.584 48.1374 48.624 45.4434 48.269" fill="#FBF3E7"></path>
<path d="M46.2334 26.456C57.8034 28.239 61.5554 28.406 82.9484 25.502C89.9284 24.554 90.3784 27.588 90.4734 28.222C91.0314 31.948 88.8864 30.698 84.4744 32.622C84.9474 32.578 89.9354 32.117 90.1984 34.193C90.5264 36.773 85.8034 39.64 85.2854 39.954C91.9334 40.121 89.4254 45.341 83.1694 46.998C79.4054 47.995 75.9114 48.856 72.6444 49.161C57.3974 50.584 48.1374 48.624 45.4434 48.269" stroke="#EB3915" stroke-width="2.63863"></path>
<path fill-rule="evenodd" clip-rule="evenodd" d="M68.9025 49.4649C56.7685 49.7869 51.9886 49.7009 31.6256 45.8869C24.7016 44.5909 24.1956 47.9739 24.1006 48.6079C23.5426 52.3329 25.6876 51.0839 30.0996 53.0079C29.6266 52.9639 24.6386 52.5029 24.3756 54.5779C24.0476 57.1589 28.7706 60.0259 29.2886 60.3399C22.6406 60.5069 25.0596 66.1079 31.4046 67.3829C52.2666 71.5769 66.0106 70.0659 68.9226 69.3719" fill="#FBF3E7"></path>
<path d="M68.9025 49.4649C56.7685 49.7869 51.9886 49.7009 31.6256 45.8869C24.7016 44.5909 24.1956 47.9739 24.1006 48.6079C23.5426 52.3329 25.6876 51.0839 30.0996 53.0079C29.6266 52.9639 24.6386 52.5029 24.3756 54.5779C24.0476 57.1589 28.7706 60.0259 29.2886 60.3399C22.6406 60.5069 25.0596 66.1079 31.4046 67.3829C52.2666 71.5769 66.0106 70.0659 68.9226 69.3719" stroke="#EB3915" stroke-width="2.63863"></path>
<path fill-rule="evenodd" clip-rule="evenodd" d="M111.879 27.7451C110.446 23.6061 101.061 24.0961 98.9188 26.3781C98.5338 26.7881 95.5228 30.2411 104.267 30.9311C89.5358 34.9091 103.961 37.7251 104.503 37.8191C92.7098 42.4821 104.227 45.3041 107.229 44.2861C115.438 41.5011 113.36 32.0231 111.879 27.7451Z" fill="#FBF3E7"></path>
<path d="M111.879 27.7451C110.446 23.6061 101.061 24.0961 98.9188 26.3781C98.5338 26.7881 95.5228 30.2411 104.267 30.9311C89.5358 34.9091 103.961 37.7251 104.503 37.8191C92.7098 42.4821 104.227 45.3041 107.229 44.2861C115.438 41.5011 113.36 32.0231 111.879 27.7451Z" stroke="#EB3915" stroke-width="2.63863"></path>
<path fill-rule="evenodd" clip-rule="evenodd" d="M2.69557 48.131C4.12857 43.992 13.5137 44.482 15.6559 46.764C16.0409 47.174 19.0529 50.627 10.3076 51.317C25.0389 55.295 10.6145 58.111 10.0719 58.205C21.8649 62.868 10.3478 65.69 7.34567 64.672C-0.863225 61.887 1.21467 52.409 2.69557 48.131Z" fill="#FBF3E7"></path>
<path d="M2.69557 48.131C4.12857 43.992 13.5137 44.482 15.6559 46.764C16.0409 47.174 19.0529 50.627 10.3076 51.317C25.0389 55.295 10.6145 58.111 10.0719 58.205C21.8649 62.868 10.3478 65.69 7.34567 64.672C-0.863225 61.887 1.21467 52.409 2.69557 48.131Z" stroke="#EB3915" stroke-width="2.63863"></path>
<path fill-rule="evenodd" clip-rule="evenodd" d="M68.6016 72.914H72.4372V63.4465H68.6016V72.914Z" fill="#FBF3E7"></path>
<path fill-rule="evenodd" clip-rule="evenodd" d="M42.6846 31.5351H46.5202V22.0676H42.6846V31.5351Z" fill="#FBF3E7"></path>
</svg>