<svg width="112" height="96" viewBox="0 0 112 96" fill="#EB3915" xmlns="http://www.w3.org/2000/svg">
<path d="M11.3477 95.0698C8.0489 95.0696 5.37121 92.3911 5.37109 89.0923L5.3711 65.8393C5.44753 65.8669 5.52462 65.8949 5.60254 65.9214L5.60352 65.9214C6.65562 66.278 8.19194 66.2554 9.57032 66.0522C10.9748 65.8451 12.5409 65.4026 13.6582 64.6743C14.2157 64.3107 14.793 63.7897 15.0869 63.064C15.411 62.2624 15.3082 61.4167 14.8613 60.6567C14.4473 59.9527 13.7494 59.3293 12.8604 58.7554C12.7663 58.6946 12.6678 58.6346 12.5674 58.5737C13.526 58.2525 14.5451 57.8354 15.3272 57.3179C15.8596 56.9654 16.4834 56.4375 16.7666 55.6831C17.1052 54.78 16.8432 53.8943 16.2422 53.1968C15.7323 52.6052 14.9493 52.1011 13.9639 51.6392C14.0142 51.6177 14.0648 51.5957 14.1133 51.5737C15.2674 51.0499 16.0637 50.2977 16.3535 49.3052C16.6322 48.3494 16.3435 47.4924 16.0684 46.9526C15.7873 46.4012 15.4326 46.0033 15.2988 45.8608C14.5014 45.0114 13.2118 44.4745 11.9307 44.1528C10.5979 43.8183 9.05252 43.6618 7.53907 43.7212C6.8168 43.7496 6.08364 43.8302 5.3711 43.9692L5.3711 5.97704C5.37111 2.67817 8.04884 0.000679551 11.3477 0.000479603L39.2412 0.000482041C42.54 0.000674066 45.2187 2.67817 45.2188 5.97705L45.2188 25.1675C45.185 25.1623 45.1511 25.1571 45.1172 25.1518L45.1172 27.4995C50.9191 28.3935 54.4404 29.1558 59.6162 29.0552C64.7601 28.9551 71.1166 28.2605 81.8086 26.8091C85.1488 26.3555 86.6032 26.9048 87.2041 27.3384C87.7564 27.7372 87.8191 28.2005 87.8516 28.4175C87.9818 29.2877 87.9023 29.5971 87.8662 29.6802C87.8589 29.6968 87.8557 29.7029 87.8369 29.7183C87.8043 29.7446 87.7237 29.7975 87.5449 29.8667C87.13 30.0272 86.6124 30.1327 85.7022 30.3696C84.8535 30.5905 83.8193 30.8939 82.6299 31.4126L83.2793 33.9351C83.5083 33.9138 84.7623 33.8001 85.9619 33.9243C86.5724 33.9876 87.059 34.1027 87.3682 34.2524C87.4936 34.3133 87.5508 34.3603 87.5752 34.3853C87.594 34.603 87.5205 34.9439 87.2119 35.4292C86.8973 35.9237 86.4181 36.4423 85.8623 36.9399C84.7544 37.9318 83.5321 38.6754 83.2842 38.8257L79.4336 41.1597L83.9356 41.272C85.4817 41.3109 86.188 41.6469 86.4424 41.8745C86.5456 41.9669 86.567 42.0327 86.5752 42.0737C86.5858 42.1273 86.5914 42.2478 86.5147 42.4517C86.3506 42.8865 85.8786 43.5102 84.9883 44.1489C84.1199 44.7717 82.9393 45.3449 81.5156 45.7222C77.7457 46.7205 74.3492 47.5535 71.2051 47.8472C70.1034 47.95 69.036 48.0349 68.0039 48.105C56.315 48.4094 50.5319 48.3318 30.5508 44.5893C26.9143 43.9087 24.612 44.3893 23.1856 45.4731C21.7527 46.5624 21.5367 48.0178 21.4775 48.4126C21.3297 49.4018 21.3094 50.3342 21.6563 51.1255C21.9599 51.8177 22.4662 52.2354 22.9941 52.5102C22.4086 52.8959 21.865 53.4994 21.749 54.4106C21.6126 55.4845 22.0132 56.4628 22.501 57.23C22.996 58.0084 23.6689 58.7109 24.3174 59.2915C24.4621 59.4211 24.6085 59.5463 24.7539 59.6675C24.3568 59.8559 24.0035 60.0873 23.7041 60.3667C22.6488 61.3523 22.4843 62.6898 22.915 63.8911C23.3205 65.0214 24.2353 66.0453 25.3906 66.8501C26.5657 67.6686 28.0775 68.3248 29.8262 68.6763C35.5419 69.8253 40.6898 70.5758 45.2188 71.0454L45.2188 89.0923C45.2186 92.3911 42.54 95.0696 39.2412 95.0698L11.3477 95.0698ZM73.2246 95.1851C69.9259 95.1849 67.2483 92.5072 67.248 89.2085L67.248 71.0112C67.2651 71.0073 67.2823 71.0034 67.2988 70.9995L67.2988 68.0884C64.6182 68.7275 51.0721 70.2558 30.3467 66.0893L29.8252 65.9712C28.6364 65.6715 27.6474 65.206 26.8994 64.6851C26.0248 64.0759 25.5599 63.4496 25.3984 62.9995C25.2629 62.6211 25.344 62.4466 25.5059 62.2954C25.7708 62.0486 26.4783 61.697 28.0039 61.6587L32.498 61.5454L28.6553 59.2114C28.4074 59.0609 27.1854 58.318 26.0772 57.3257C25.5212 56.8278 25.0422 56.3096 24.7275 55.8149C24.419 55.3296 24.3465 54.989 24.3652 54.771C24.3899 54.7459 24.4468 54.6985 24.5713 54.6382C24.8804 54.4887 25.3664 54.3732 25.9766 54.3101C27.1766 54.1859 28.431 54.2996 28.6592 54.3208L29.3086 51.7983C28.1193 51.2797 27.0858 50.9764 26.2373 50.7554C25.327 50.5183 24.8095 50.4129 24.3945 50.2524C24.2155 50.1831 24.1353 50.1305 24.1025 50.104C24.0832 50.0883 24.0806 50.0826 24.0732 50.0659C24.0372 49.9834 23.9576 49.6747 24.0879 48.8032C24.124 48.5626 24.2095 48.0092 24.7822 47.5737C25.364 47.1319 26.7789 46.5682 30.0645 47.1831C35.6738 48.2337 40.1846 48.9993 44.0293 49.5503L44.0186 49.6323C46.9784 50.0011 54.751 51.6403 68.1152 50.7417C68.2725 50.7376 68.4314 50.7332 68.5908 50.729L68.5908 50.7104C69.5173 50.6446 70.4707 50.5655 71.4502 50.4741C74.8396 50.1576 78.4321 49.2684 82.1914 48.2729C83.8945 47.8217 85.3734 47.1204 86.5264 46.2935C87.6568 45.4825 88.5705 44.4801 88.9844 43.3823C89.1962 42.8202 89.2888 42.1954 89.1641 41.563C89.0367 40.9181 88.6998 40.3542 88.2022 39.9087C87.9158 39.6524 87.5807 39.4396 87.2051 39.2651C87.3438 39.1491 87.4841 39.0293 87.6221 38.9058C88.2703 38.3253 88.9436 37.6232 89.4385 36.8452C89.9262 36.0784 90.3274 35.0992 90.1914 34.0259C90.0754 33.1147 89.5318 32.5104 88.9463 32.1245C89.4737 31.8497 89.9799 31.4315 90.2832 30.7397C90.6299 29.9483 90.6091 29.0153 90.4609 28.0259C90.3984 27.6084 90.1876 26.2377 88.7481 25.1987C87.3554 24.1939 85.0928 23.6998 81.4541 24.1938C75.5266 24.9985 70.9745 25.5641 67.2481 25.9253L67.2481 6.09228C67.2481 2.7934 69.9258 0.114943 73.2246 0.114743L101.118 0.114745C104.417 0.114937 107.096 2.7934 107.096 6.09228L107.096 23.6987C106.221 23.4864 105.302 23.3699 104.399 23.3345C102.886 23.2751 101.34 23.4315 100.007 23.7661C98.7257 24.0878 97.4372 24.6257 96.6397 25.4751C96.5057 25.6178 96.15 26.0149 95.8691 26.5659C95.5941 27.1057 95.3062 27.9628 95.585 28.9185C95.8748 29.9111 96.6709 30.6632 97.8252 31.187C97.8741 31.2092 97.9249 31.2308 97.9756 31.2524C96.99 31.7144 96.2063 32.2185 95.6963 32.8101C95.0952 33.5076 94.8342 34.3932 95.1729 35.2964C95.4561 36.0512 96.0797 36.5786 96.6123 36.9312C97.3946 37.4489 98.4133 37.8648 99.3721 38.186C99.2712 38.2472 99.1717 38.3076 99.0772 38.3687C98.1883 38.9424 97.4903 39.5662 97.0762 40.27C96.6293 41.03 96.5265 41.8757 96.8506 42.6772C97.1445 43.4034 97.7216 43.9238 98.2793 44.2876C99.3967 45.0162 100.963 45.4584 102.368 45.6655C103.747 45.8687 105.283 45.8914 106.335 45.5347C106.597 45.4458 106.85 45.3501 107.096 45.2485L107.096 89.2085C107.095 92.5072 104.417 95.1849 101.118 95.1851L73.2246 95.1851ZM105.487 43.0356C105.039 43.1878 104.009 43.2403 102.753 43.0552C101.523 42.8738 100.384 42.5098 99.7207 42.0776C99.431 41.8887 99.3328 41.7496 99.3057 41.7017C99.3122 41.6829 99.325 41.6514 99.3506 41.6079C99.4685 41.4077 99.7833 41.0537 100.509 40.5854C101.22 40.1268 102.244 39.6091 103.67 39.0454L108.033 37.3198L103.41 36.5181C103.312 36.501 102.355 36.3176 101.208 35.9927C100.024 35.6573 98.8014 35.2161 98.0684 34.731C97.9124 34.6277 97.8117 34.5416 97.7471 34.48C97.9451 34.279 98.3824 33.959 99.251 33.5669C100.178 33.1486 101.491 32.6906 103.294 32.2036L103.054 29.6147C100.938 29.4478 99.6585 29.1205 98.916 28.7837C98.1923 28.4553 98.1213 28.1903 98.1182 28.1792C98.1052 28.134 98.0957 28.0066 98.2197 27.7632C98.2789 27.6472 98.3507 27.5422 98.4141 27.4585L98.5625 27.2808C98.8363 26.9895 99.5244 26.6082 100.649 26.3257C101.723 26.0561 103.017 25.921 104.296 25.9712C105.583 26.0218 106.779 26.257 107.693 26.6675C108.608 27.0779 109.116 27.6014 109.315 28.1763C110.033 30.251 110.85 33.4753 110.557 36.4448C110.411 37.9127 110 39.26 109.226 40.3745C108.462 41.4733 107.291 42.4235 105.487 43.0356ZM9.18555 63.4419C7.92956 63.627 6.89903 63.5744 6.4502 63.4224C4.64621 62.8102 3.47582 61.8601 2.71192 60.7612C1.93711 59.6467 1.52601 58.2995 1.38086 56.8315C1.08741 53.8619 1.90586 50.6376 2.62403 48.563C2.82318 47.9881 3.3313 47.4646 4.24512 47.0542C5.15968 46.6437 6.35602 46.4085 7.64258 46.3579C8.92146 46.3077 10.2145 46.4429 11.2881 46.7124C12.2729 46.9597 12.9228 47.2823 13.2529 47.5542L13.375 47.6675C13.4339 47.7302 13.5993 47.9184 13.7178 48.1509C13.8417 48.3942 13.8333 48.5208 13.8203 48.5659C13.8163 48.5804 13.7406 48.8445 13.0225 49.1704C12.2801 49.5071 11.0005 49.8345 8.88477 50.0015L8.64453 52.5903C10.4477 53.0773 11.7609 53.5353 12.6875 53.9536C13.5572 54.3462 13.9947 54.6657 14.1924 54.8667C14.1277 54.9283 14.026 55.0144 13.8701 55.1177C13.1371 55.6027 11.9146 56.0441 10.7305 56.3794C9.58297 56.7043 8.62509 56.8878 8.52735 56.9048L3.90235 57.7056L8.26758 59.4321C9.69337 59.9959 10.719 60.5134 11.4297 60.9722C12.1555 61.4407 12.4693 61.7946 12.5869 61.9946C12.6132 62.0394 12.6265 62.0708 12.6328 62.0893C12.605 62.1381 12.5046 62.2766 12.2168 62.4643C11.5539 62.8963 10.4148 63.2606 9.18555 63.4419Z" fill="#EB3915"></path>
</svg>