<svg width="46" height="27" viewBox="0 0 46 27" fill="none" xmlns="http://www.w3.org/2000/svg">
<path d="M27.154 12V5.04H24.706V3.6H31.186V5.04H28.738V12H27.154ZM33.1294 12.168C32.7054 12.168 32.3254 12.096 31.9894 11.952C31.6534 11.8 31.3854 11.584 31.1854 11.304C30.9934 11.016 30.8974 10.668 30.8974 10.26C30.8974 9.852 30.9934 9.512 31.1854 9.24C31.3854 8.96 31.6574 8.752 32.0014 8.616C32.3534 8.472 32.7534 8.4 33.2014 8.4H34.8334V8.064C34.8334 7.784 34.7454 7.556 34.5694 7.38C34.3934 7.196 34.1134 7.104 33.7294 7.104C33.3534 7.104 33.0734 7.192 32.8894 7.368C32.7054 7.536 32.5854 7.756 32.5294 8.028L31.1374 7.56C31.2334 7.256 31.3854 6.98 31.5934 6.732C31.8094 6.476 32.0934 6.272 32.4454 6.12C32.8054 5.96 33.2414 5.88 33.7534 5.88C34.5374 5.88 35.1574 6.076 35.6134 6.468C36.0694 6.86 36.2974 7.428 36.2974 8.172V10.392C36.2974 10.632 36.4094 10.752 36.6334 10.752H37.1134V12H36.1054C35.8094 12 35.5654 11.928 35.3734 11.784C35.1814 11.64 35.0854 11.448 35.0854 11.208V11.196H34.8574C34.8254 11.292 34.7534 11.42 34.6414 11.58C34.5294 11.732 34.3534 11.868 34.1134 11.988C33.8734 12.108 33.5454 12.168 33.1294 12.168ZM33.3934 10.944C33.8174 10.944 34.1614 10.828 34.4254 10.596C34.6974 10.356 34.8334 10.04 34.8334 9.648V9.528H33.3094C33.0294 9.528 32.8094 9.588 32.6494 9.708C32.4894 9.828 32.4094 9.996 32.4094 10.212C32.4094 10.428 32.4934 10.604 32.6614 10.74C32.8294 10.876 33.0734 10.944 33.3934 10.944ZM38.2189 14.4V6.048H39.7069V6.768H39.9229C40.0589 6.536 40.2709 6.332 40.5589 6.156C40.8469 5.972 41.2589 5.88 41.7949 5.88C42.2749 5.88 42.7189 6 43.1269 6.24C43.5349 6.472 43.8629 6.816 44.1109 7.272C44.3589 7.728 44.4829 8.28 44.4829 8.928V9.12C44.4829 9.768 44.3589 10.32 44.1109 10.776C43.8629 11.232 43.5349 11.58 43.1269 11.82C42.7189 12.052 42.2749 12.168 41.7949 12.168C41.4349 12.168 41.1309 12.124 40.8829 12.036C40.6429 11.956 40.4469 11.852 40.2949 11.724C40.1509 11.588 40.0349 11.452 39.9469 11.316H39.7309V14.4H38.2189ZM41.3389 10.848C41.8109 10.848 42.1989 10.7 42.5029 10.404C42.8149 10.1 42.9709 9.66 42.9709 9.084V8.964C42.9709 8.388 42.8149 7.952 42.5029 7.656C42.1909 7.352 41.8029 7.2 41.3389 7.2C40.8749 7.2 40.4869 7.352 40.1749 7.656C39.8629 7.952 39.7069 8.388 39.7069 8.964V9.084C39.7069 9.66 39.8629 10.1 40.1749 10.404C40.4869 10.7 40.8749 10.848 41.3389 10.848Z" fill="black"></path>
<path d="M19.5452 8.70754L20.044 8.67265L19.9742 7.67509L19.4754 7.70998L19.5103 8.20876L19.5452 8.70754ZM8.883 11.3227L9.20253 11.7072L8.883 11.3227ZM5.87952 14.6191L5.4499 14.3634L5.87952 14.6191ZM4.27683 18.9681L3.80031 18.8167C3.79455 18.8349 3.78982 18.8533 3.78616 18.872L4.27683 18.9681ZM3.64764 24.5383L3.14891 24.5019L3.14846 24.5097L3.64764 24.5383ZM3.23055 26.344C3.42041 26.5446 3.73687 26.5532 3.9374 26.3634L7.20513 23.2695C7.40565 23.0796 7.4143 22.7632 7.22444 22.5627C7.03459 22.3621 6.71813 22.3535 6.5176 22.5433L3.61295 25.2934L0.86286 22.3888C0.673005 22.1883 0.356541 22.1796 0.156017 22.3695C-0.0445073 22.5593 -0.0531569 22.8758 0.136697 23.0763L3.23055 26.344ZM19.5103 8.20876L19.4754 7.70998C19.4995 7.7083 19.5236 7.70897 19.4995 7.70879C19.492 7.70874 19.4807 7.70862 19.4652 7.70845C19.4283 7.70803 19.3958 7.70762 19.3327 7.70691C19.2187 7.70563 19.0566 7.70398 18.8596 7.70281C18.466 7.70047 17.9326 7.70004 17.3671 7.70837C16.8023 7.71669 16.2011 7.73378 15.6727 7.76686C15.1583 7.79907 14.6697 7.84856 14.3554 7.93331L14.4856 8.41607L14.6158 8.89883C14.8207 8.84356 15.2155 8.79744 15.7352 8.76491C16.2409 8.73324 16.8245 8.71647 17.3818 8.70826C17.9382 8.70007 18.4642 8.70047 18.8537 8.70279C19.0483 8.70395 19.2086 8.70558 19.3214 8.70685C19.3717 8.70741 19.4286 8.7081 19.454 8.70838C19.4695 8.70856 19.4825 8.70869 19.4921 8.70876C19.4968 8.7088 19.5017 8.70882 19.5062 8.70882C19.5083 8.70882 19.5115 8.70881 19.5152 8.70876C19.517 8.70874 19.5201 8.70869 19.5237 8.70859C19.526 8.70853 19.5345 8.7083 19.5452 8.70754L19.5103 8.20876ZM14.4856 8.41607L14.3554 7.93331C13.3765 8.19727 12.6446 8.29207 11.6461 8.77393L11.8634 9.22424L12.0807 9.67454C12.9671 9.2468 13.5177 9.1949 14.6158 8.89883L14.4856 8.41607ZM11.8634 9.22424L11.6461 8.77393C10.6412 9.25891 9.5687 10.1029 8.56347 10.9381L8.883 11.3227L9.20253 11.7072C10.2153 10.8658 11.2008 10.0992 12.0807 9.67454L11.8634 9.22424ZM8.883 11.3227L8.56347 10.9381C6.73064 12.4609 5.83303 13.7198 5.4499 14.3634L5.87952 14.6191L6.30914 14.8749C6.63345 14.3302 7.45628 13.1581 9.20253 11.7072L8.883 11.3227ZM5.87952 14.6191L5.4499 14.3634C5.22821 14.7357 4.97646 15.3523 4.70664 16.0994C4.43258 16.8581 4.12665 17.7898 3.80031 18.8167L4.27683 18.9681L4.75335 19.1196C5.07877 18.0955 5.37995 17.1789 5.64717 16.4391C5.91864 15.6875 6.14234 15.1551 6.30914 14.8749L5.87952 14.6191ZM4.27683 18.9681L3.78616 18.872C3.35785 21.0582 3.23284 23.3526 3.14897 24.5019L3.64764 24.5383L4.14632 24.5747C4.23201 23.4003 4.35354 21.1772 4.7675 19.0643L4.27683 18.9681ZM3.64764 24.5383L3.14846 24.5097C3.13177 24.8015 3.11515 25.2062 3.09382 25.9866L3.59363 26.0003L4.09345 26.0139C4.11469 25.2367 4.13099 24.8437 4.14683 24.5669L3.64764 24.5383Z" fill="black"></path>
</svg>